<mxfile host="app.diagrams.net" modified="2024-05-30T10:56:59.929Z" agent="Mozilla/5.0 (Macintosh; Intel Mac OS X 10_15_7) AppleWebKit/605.1.15 (KHTML, like Gecko) Version/17.5 Safari/605.1.15" version="24.4.4" etag="IkGmJddf2kkFVsF-4g6h" type="github">
  <diagram name="Page-1" id="vNsD87Ibh9uPpgsmAd--">
    <mxGraphModel>
      <root>
        <mxCell id="0" />
        <mxCell id="1" parent="0" />
      </root>
    </mxGraphModel>
  </diagram>
</mxfile>
